# xmcd
# Track frame offsets:
# 150
# 11797
# 24757
# 34887
# 50807
# 66320
# 78932
# 93527
# 104942
# 120087
# 132325
# 145372
#
# Disc length: 2109 seconds
# Revision: 0
# Processed by: cddbd v1.4PL0 Copyright (c) Steve Scherf et al.
# Submitted via: VisiTrax 2.9.5.180 - For more info visit www.synapsa.com
#
DISCID=a7083b0c
DTITLE=Bill Conlon - With you in mind
DYEAR=1989
DGENRE=
TTITLE0=Lucille
TTITLE1=I know one
TTITLE2=Cowboys don't get lucky
TTITLE3=I don't have far to fall
TTITLE4=Please please (tell me that you love me again)
TTITLE5=The chair
TTITLE6=Carmen
TTITLE7=Not counting you
TTITLE8=She's holding her own now
TTITLE9=That ain't like your memory
TTITLE10=Let's start forever
TTITLE11=Streets of Bakersfield
EXTD=
EXTT0=
EXTT1=
EXTT2=
EXTT3=
EXTT4=
EXTT5=
EXTT6=
EXTT7=
EXTT8=
EXTT9=
EXTT10=
EXTT11=
PLAYORDER=
